<mxfile host="app.diagrams.net" agent="Mozilla/5.0 (Windows NT 10.0; Win64; x64) AppleWebKit/537.36 (KHTML, like Gecko) Chrome/130.0.0.0 Safari/537.36" version="24.8.4">
  <diagram name="Page-1" id="GJ5GF0WQlz2b8zALT9-3">
    <mxGraphModel dx="3248" dy="1413" grid="1" gridSize="10" guides="1" tooltips="1" connect="1" arrows="1" fold="1" page="1" pageScale="1" pageWidth="827" pageHeight="1169" math="0" shadow="0">
      <root>
        <mxCell id="0" />
        <mxCell id="1" parent="0" />
        <mxCell id="RvRMursmquLeaO9rJ4Xs-4" style="edgeStyle=orthogonalEdgeStyle;rounded=0;orthogonalLoop=1;jettySize=auto;html=1;exitX=0.5;exitY=1;exitDx=0;exitDy=0;entryX=0.5;entryY=0;entryDx=0;entryDy=0;" edge="1" parent="1" source="RvRMursmquLeaO9rJ4Xs-1" target="RvRMursmquLeaO9rJ4Xs-3">
          <mxGeometry relative="1" as="geometry" />
        </mxCell>
        <mxCell id="RvRMursmquLeaO9rJ4Xs-1" value="User (Console)" style="rounded=0;whiteSpace=wrap;html=1;" vertex="1" parent="1">
          <mxGeometry x="354" y="90" width="176" height="40" as="geometry" />
        </mxCell>
        <mxCell id="RvRMursmquLeaO9rJ4Xs-6" style="edgeStyle=orthogonalEdgeStyle;rounded=0;orthogonalLoop=1;jettySize=auto;html=1;exitX=0.5;exitY=1;exitDx=0;exitDy=0;" edge="1" parent="1" source="RvRMursmquLeaO9rJ4Xs-3" target="RvRMursmquLeaO9rJ4Xs-5">
          <mxGeometry relative="1" as="geometry" />
        </mxCell>
        <mxCell id="RvRMursmquLeaO9rJ4Xs-3" value="Main Function" style="rounded=0;whiteSpace=wrap;html=1;" vertex="1" parent="1">
          <mxGeometry x="354" y="190" width="176" height="40" as="geometry" />
        </mxCell>
        <mxCell id="RvRMursmquLeaO9rJ4Xs-8" style="edgeStyle=orthogonalEdgeStyle;rounded=0;orthogonalLoop=1;jettySize=auto;html=1;exitX=0.5;exitY=1;exitDx=0;exitDy=0;entryX=0.5;entryY=0;entryDx=0;entryDy=0;" edge="1" parent="1" source="RvRMursmquLeaO9rJ4Xs-5" target="RvRMursmquLeaO9rJ4Xs-7">
          <mxGeometry relative="1" as="geometry" />
        </mxCell>
        <mxCell id="RvRMursmquLeaO9rJ4Xs-5" value="search_documents()" style="rounded=0;whiteSpace=wrap;html=1;" vertex="1" parent="1">
          <mxGeometry x="354" y="280" width="176" height="40" as="geometry" />
        </mxCell>
        <mxCell id="RvRMursmquLeaO9rJ4Xs-15" style="edgeStyle=orthogonalEdgeStyle;rounded=0;orthogonalLoop=1;jettySize=auto;html=1;exitX=0.5;exitY=1;exitDx=0;exitDy=0;" edge="1" parent="1" source="RvRMursmquLeaO9rJ4Xs-7" target="RvRMursmquLeaO9rJ4Xs-10">
          <mxGeometry relative="1" as="geometry" />
        </mxCell>
        <mxCell id="RvRMursmquLeaO9rJ4Xs-7" value="preprocess_text()" style="rounded=0;whiteSpace=wrap;html=1;" vertex="1" parent="1">
          <mxGeometry x="354" y="370" width="176" height="40" as="geometry" />
        </mxCell>
        <mxCell id="RvRMursmquLeaO9rJ4Xs-10" value="Document Index Class" style="swimlane;fontStyle=1;align=center;verticalAlign=middle;childLayout=stackLayout;horizontal=1;startSize=29;horizontalStack=0;resizeParent=1;resizeParentMax=0;resizeLast=0;collapsible=0;marginBottom=0;html=1;whiteSpace=wrap;" vertex="1" parent="1">
          <mxGeometry x="357" y="460" width="170" height="70" as="geometry" />
        </mxCell>
        <mxCell id="RvRMursmquLeaO9rJ4Xs-11" value="Add words to index&lt;br&gt;&lt;div&gt;Search words&lt;/div&gt;" style="text;html=1;strokeColor=none;fillColor=none;align=center;verticalAlign=middle;spacingLeft=4;spacingRight=4;overflow=hidden;rotatable=0;points=[[0,0.5],[1,0.5]];portConstraint=eastwest;whiteSpace=wrap;" vertex="1" parent="RvRMursmquLeaO9rJ4Xs-10">
          <mxGeometry y="29" width="170" height="41" as="geometry" />
        </mxCell>
        <mxCell id="RvRMursmquLeaO9rJ4Xs-20" style="edgeStyle=orthogonalEdgeStyle;rounded=0;orthogonalLoop=1;jettySize=auto;html=1;entryX=0.5;entryY=0;entryDx=0;entryDy=0;" edge="1" parent="1" source="RvRMursmquLeaO9rJ4Xs-13" target="RvRMursmquLeaO9rJ4Xs-18">
          <mxGeometry relative="1" as="geometry" />
        </mxCell>
        <mxCell id="RvRMursmquLeaO9rJ4Xs-13" value="LinkedList Class" style="swimlane;fontStyle=1;align=center;verticalAlign=middle;childLayout=stackLayout;horizontal=1;startSize=29;horizontalStack=0;resizeParent=1;resizeParentMax=0;resizeLast=0;collapsible=0;marginBottom=0;html=1;whiteSpace=wrap;" vertex="1" parent="1">
          <mxGeometry x="360" y="585" width="170" height="90" as="geometry" />
        </mxCell>
        <mxCell id="RvRMursmquLeaO9rJ4Xs-14" value="insert documents in nodes&lt;br&gt;&lt;div&gt;Search and Display docs&lt;/div&gt;" style="text;html=1;strokeColor=none;fillColor=none;align=center;verticalAlign=middle;spacingLeft=4;spacingRight=4;overflow=hidden;rotatable=0;points=[[0,0.5],[1,0.5]];portConstraint=eastwest;whiteSpace=wrap;" vertex="1" parent="RvRMursmquLeaO9rJ4Xs-13">
          <mxGeometry y="29" width="170" height="61" as="geometry" />
        </mxCell>
        <mxCell id="RvRMursmquLeaO9rJ4Xs-16" style="edgeStyle=orthogonalEdgeStyle;rounded=0;orthogonalLoop=1;jettySize=auto;html=1;entryX=0.459;entryY=0.057;entryDx=0;entryDy=0;entryPerimeter=0;" edge="1" parent="1" source="RvRMursmquLeaO9rJ4Xs-10" target="RvRMursmquLeaO9rJ4Xs-13">
          <mxGeometry relative="1" as="geometry" />
        </mxCell>
        <mxCell id="RvRMursmquLeaO9rJ4Xs-24" style="edgeStyle=orthogonalEdgeStyle;rounded=0;orthogonalLoop=1;jettySize=auto;html=1;entryX=0.5;entryY=0;entryDx=0;entryDy=0;" edge="1" parent="1" source="RvRMursmquLeaO9rJ4Xs-18" target="RvRMursmquLeaO9rJ4Xs-23">
          <mxGeometry relative="1" as="geometry" />
        </mxCell>
        <mxCell id="RvRMursmquLeaO9rJ4Xs-18" value="Node Class" style="swimlane;fontStyle=1;align=center;verticalAlign=middle;childLayout=stackLayout;horizontal=1;startSize=29;horizontalStack=0;resizeParent=1;resizeParentMax=0;resizeLast=0;collapsible=0;marginBottom=0;html=1;whiteSpace=wrap;" vertex="1" parent="1">
          <mxGeometry x="360" y="730" width="170" height="70" as="geometry" />
        </mxCell>
        <mxCell id="RvRMursmquLeaO9rJ4Xs-19" value="Store Document names&lt;br&gt;&lt;div&gt;Connect to next node&lt;/div&gt;" style="text;html=1;strokeColor=none;fillColor=none;align=center;verticalAlign=middle;spacingLeft=4;spacingRight=4;overflow=hidden;rotatable=0;points=[[0,0.5],[1,0.5]];portConstraint=eastwest;whiteSpace=wrap;" vertex="1" parent="RvRMursmquLeaO9rJ4Xs-18">
          <mxGeometry y="29" width="170" height="41" as="geometry" />
        </mxCell>
        <mxCell id="RvRMursmquLeaO9rJ4Xs-33" style="edgeStyle=orthogonalEdgeStyle;rounded=0;orthogonalLoop=1;jettySize=auto;html=1;" edge="1" parent="1" source="RvRMursmquLeaO9rJ4Xs-23" target="RvRMursmquLeaO9rJ4Xs-25">
          <mxGeometry relative="1" as="geometry" />
        </mxCell>
        <mxCell id="RvRMursmquLeaO9rJ4Xs-23" value="display_results()" style="rounded=0;whiteSpace=wrap;html=1;" vertex="1" parent="1">
          <mxGeometry x="360" y="850" width="176" height="40" as="geometry" />
        </mxCell>
        <mxCell id="RvRMursmquLeaO9rJ4Xs-25" value="User (Console)" style="rounded=0;whiteSpace=wrap;html=1;" vertex="1" parent="1">
          <mxGeometry x="360" y="950" width="176" height="40" as="geometry" />
        </mxCell>
        <mxCell id="RvRMursmquLeaO9rJ4Xs-26" value="User Inputs Search&amp;nbsp;&lt;div&gt;query&lt;/div&gt;" style="text;html=1;align=center;verticalAlign=middle;resizable=0;points=[];autosize=1;strokeColor=none;fillColor=none;" vertex="1" parent="1">
          <mxGeometry x="450" y="140" width="130" height="40" as="geometry" />
        </mxCell>
        <mxCell id="RvRMursmquLeaO9rJ4Xs-27" value="Calls search_documents()" style="text;html=1;align=center;verticalAlign=middle;resizable=0;points=[];autosize=1;strokeColor=none;fillColor=none;" vertex="1" parent="1">
          <mxGeometry x="455" y="238" width="160" height="30" as="geometry" />
        </mxCell>
        <mxCell id="RvRMursmquLeaO9rJ4Xs-28" value="process query" style="text;html=1;align=center;verticalAlign=middle;resizable=0;points=[];autosize=1;strokeColor=none;fillColor=none;" vertex="1" parent="1">
          <mxGeometry x="440" y="328" width="100" height="30" as="geometry" />
        </mxCell>
        <mxCell id="RvRMursmquLeaO9rJ4Xs-29" value="Processes and returns query" style="text;html=1;align=center;verticalAlign=middle;resizable=0;points=[];autosize=1;strokeColor=none;fillColor=none;" vertex="1" parent="1">
          <mxGeometry x="441" y="420" width="180" height="30" as="geometry" />
        </mxCell>
        <mxCell id="RvRMursmquLeaO9rJ4Xs-30" value="Calls LinkedList methods" style="text;html=1;align=center;verticalAlign=middle;resizable=0;points=[];autosize=1;strokeColor=none;fillColor=none;" vertex="1" parent="1">
          <mxGeometry x="443" y="548" width="160" height="30" as="geometry" />
        </mxCell>
        <mxCell id="RvRMursmquLeaO9rJ4Xs-31" value="Holds documents for each word" style="text;html=1;align=center;verticalAlign=middle;resizable=0;points=[];autosize=1;strokeColor=none;fillColor=none;" vertex="1" parent="1">
          <mxGeometry x="456" y="688" width="190" height="30" as="geometry" />
        </mxCell>
        <mxCell id="RvRMursmquLeaO9rJ4Xs-32" value="Document results" style="text;html=1;align=center;verticalAlign=middle;resizable=0;points=[];autosize=1;strokeColor=none;fillColor=none;" vertex="1" parent="1">
          <mxGeometry x="460" y="808" width="120" height="30" as="geometry" />
        </mxCell>
        <mxCell id="RvRMursmquLeaO9rJ4Xs-34" value="Output results to the user" style="text;html=1;align=center;verticalAlign=middle;resizable=0;points=[];autosize=1;strokeColor=none;fillColor=none;" vertex="1" parent="1">
          <mxGeometry x="454" y="903" width="160" height="30" as="geometry" />
        </mxCell>
      </root>
    </mxGraphModel>
  </diagram>
</mxfile>
